HIERARCHY
ROOT Hips
{
	OFFSET 0.00000 0.00000 0.00000
	CHANNELS 6 Xposition Yposition Zposition Zrotation Yrotation Xrotation 
	JOINT LHipJoint
	{
		OFFSET 0 0 0
		CHANNELS 3 Zrotation Yrotation Xrotation
		JOINT LeftHip
		{
			OFFSET 1.54859 -1.61379 0.86856
			CHANNELS 3 Zrotation Yrotation Xrotation
			JOINT LeftKnee
			{
				OFFSET 2.25087 -6.18423 0.00000
				CHANNELS 3 Zrotation Yrotation Xrotation
				JOINT LeftAnkle
				{
					OFFSET 2.40328 -6.60297 0.00000
					CHANNELS 3 Zrotation Yrotation Xrotation
					JOINT LeftToe
					{
						OFFSET 0.17435 -0.47901 2.02453
						CHANNELS 3 Zrotation Yrotation Xrotation
						End Site
						{
							OFFSET 0.00000 -0.00000 1.04844
						}
					}
				}
			}
		}
	}
	JOINT RHipJoint
	{
		OFFSET 0 0 0
		CHANNELS 3 Zrotation Yrotation Xrotation
		JOINT RightHip
		{
			OFFSET -1.54669 -1.61379 0.86856
			CHANNELS 3 Zrotation Yrotation Xrotation
			JOINT RightKnee
			{
				OFFSET -2.28132 -6.26789 0.00000
				CHANNELS 3 Zrotation Yrotation Xrotation
				JOINT RightAnkle
				{
					OFFSET -2.51636 -6.91365 0.00000
					CHANNELS 3 Zrotation Yrotation Xrotation
					JOINT RightToe
					{
						OFFSET -0.15124 -0.41552 2.21090
						CHANNELS 3 Zrotation Yrotation Xrotation
						End Site
						{
							OFFSET -0.00000 -0.00000 1.13399
						}
					}
				}
			}
		}
	}
	JOINT lowerback
	{
		OFFSET 0 0 0
		CHANNELS 3 Zrotation Yrotation Xrotation
		JOINT Chest
		{
			OFFSET -0.04287 2.26161 -0.25690
			CHANNELS 3 Zrotation Yrotation Xrotation
			JOINT Chest2
			{
				OFFSET 0.02248 2.28395 -0.10140
				CHANNELS 3 Zrotation Yrotation Xrotation
				JOINT lowerneck
				{
					OFFSET 0 0 0
					CHANNELS 3 Zrotation Yrotation Xrotation
					JOINT Neck
					{
						OFFSET -0.11644 1.38496 0.11345
						CHANNELS 3 Zrotation Yrotation Xrotation
						JOINT Head
						{
							OFFSET 0.29383 1.36600 0.06642
							CHANNELS 3 Zrotation Yrotation Xrotation
							End Site
							{
								OFFSET 0.11075 1.41395 -0.00294
							}
						}
					}
				}
				JOINT LeftCollar
				{
					OFFSET 0 0 0
					CHANNELS 3 Zrotation Yrotation Xrotation
					JOINT LeftShoulder
					{
						OFFSET 3.51628 0.59542 -0.30346
CHANNELS 3 Zrotation Xrotation Yrotation
						JOINT LeftElbow
						{
OFFSET 0 -4.764050 0.000000
CHANNELS 3 Zrotation Xrotation Yrotation
							JOINT LeftWrist
							{
OFFSET 0 -3.137590 -0.000000
CHANNELS 3 Zrotation Xrotation Yrotation
								JOINT lhand
								{
									OFFSET 0 0 0
CHANNELS 3 Zrotation Xrotation Yrotation
									JOINT LFingers
									{
OFFSET 0 -0.732260 -0.000000
CHANNELS 3 Zrotation Xrotation Yrotation
										End Site
										{
OFFSET 0 -0.590370 -0.000000
										}
									}
								}
								JOINT LThumb
								{
OFFSET 0 0.000000 0.000000
CHANNELS 3 Zrotation Xrotation Yrotation
									End Site
									{
OFFSET 0 -0.599380 0.599380
									}
								}
							}
						}
					}
				}
				JOINT RightCollar
				{
					OFFSET 0 0 0
					CHANNELS 3 Zrotation Yrotation Xrotation
					JOINT RightShoulder
					{
						OFFSET -3.30990 0.84213 -0.36430
CHANNELS 3 Zrotation Xrotation Yrotation
						JOINT RightElbow
						{
OFFSET 0 -5.101610 -0.000000
CHANNELS 3 Zrotation Xrotation Yrotation
							JOINT RightWrist
							{
OFFSET 0 -3.232670 -0.000000
CHANNELS 3 Zrotation Xrotation Yrotation
								JOINT rhand
								{
									OFFSET 0 0 0
CHANNELS 3 Zrotation Xrotation Yrotation
									JOINT RFingers
									{
OFFSET 0 -0.702000 -0.000000
CHANNELS 3 Zrotation Xrotation Yrotation
										End Site
										{
OFFSET 0 -0.565970 -0.000000
										}
									}
								}
								JOINT RThumb
								{
OFFSET 0 0.000000 0.000000
CHANNELS 3 Zrotation Xrotation Yrotation
									End Site
									{
OFFSET 0 -0.574610 0.574610
									}
								}
							}
						}
					}
				}
			}
		}
	}
}
MOTION
Frames: 7
Frame Time: 0.008333333333333333
-5.769435 13.463949 0.930095 184.697564 -53.296932 -185.074843 0.000000 0.000000 0.000000 1.503297 9.695828 -53.149766 8.510375 16.464253 54.352370 0.011171 1.004246 1.738159 2.130078 -9.008770 -25.916259 0.000000 0.000000 0.000000 -9.929705 -0.283151 -12.392356 -13.463851 -18.940532 70.557754 0.050863 -3.871802 -3.038427 -7.223551 15.516336 -49.713125 1.438826 3.744372 29.488762 1.133812 3.509833 11.137856 -0.628963 1.005221 -3.644886 -9.365780 2.209496 -13.276060 14.240868 3.932866 -8.042397 6.043179 1.996481 -0.645773 0.000000 0.000000 0.000000 8.815991 -2.833491 -21.975777 65.812431 -57.669673 39.216818 33.852341 -17.491024 -17.696925 0.000000 0.000000 0.000000 -7.125000 0.000000 0.000000 5.943282 50.902676 -0.866159 0.000000 0.000000 0.000000 -5.705322 -13.073911 1.993163 -31.566270 -42.197886 -12.448794 -37.450069 -45.243294 -34.974217 0.000000 0.000000 0.000000 7.125000 0.000000 0.000000 -2.311995 -11.375923 -2.724714
-6.045443 13.429238 0.934545 184.078701 -53.210190 -184.946065 0.000000 0.000000 0.000000 0.967328 9.757811 -53.300001 9.301376 16.982781 57.104981 -0.008424 1.909346 0.533570 1.687242 -8.177884 -23.257922 0.000000 0.000000 0.000000 -10.373012 0.294225 -12.939439 -13.934159 -19.089539 71.999802 0.119041 -6.290747 -4.755215 -6.625946 14.980719 -47.394190 0.881587 3.840326 29.398847 1.120265 3.484647 11.137291 -0.315712 0.981218 -3.643290 -9.720108 2.190498 -13.196585 14.684732 3.948249 -7.775451 6.244783 2.021704 -0.590331 0.000000 0.000000 0.000000 9.823998 -2.736153 -22.374653 65.820368 -57.671271 39.223519 33.826383 -17.610974 -17.701497 0.000000 0.000000 0.000000 -7.125000 0.000000 0.000000 5.916590 50.903180 -0.862911 0.000000 0.000000 0.000000 -5.683520 -12.522656 1.378962 -31.316173 -41.994718 -12.280984 -37.841950 -45.154925 -34.863724 0.000000 0.000000 0.000000 7.125000 0.000000 0.000000 -2.547957 -11.402931 -3.004192
-6.318538 13.390597 0.937508 183.234169 -53.112817 -184.652109 0.000000 0.000000 0.000000 0.327913 9.758285 -53.235402 10.036327 17.429168 59.608234 -0.022174 2.736277 -0.225383 1.566637 -7.897973 -22.404737 0.000000 0.000000 0.000000 -10.945753 0.740376 -13.617199 -14.415098 -19.234799 73.468103 0.202902 -8.509645 -6.374524 -5.817743 14.247131 -44.241683 0.197012 3.972310 29.341478 1.076942 3.465978 11.149618 0.034547 0.956564 -3.648149 -10.445813 2.215331 -12.605709 15.424187 4.085449 -8.030885 6.597472 2.083874 -0.790886 0.000000 0.000000 0.000000 10.874063 -2.681688 -22.782755 65.796247 -57.666352 39.203132 33.930572 -17.761923 -17.573661 0.000000 0.000000 0.000000 -7.125000 0.000000 0.000000 6.033284 50.775167 -0.861251 0.000000 0.000000 0.000000 -5.667399 -11.959160 0.779670 -31.109989 -41.825930 -12.143073 -38.267417 -45.171875 -34.732273 0.000000 0.000000 0.000000 7.125000 0.000000 0.000000 -2.807362 -11.420651 -3.311187
-6.593126 13.413578 0.940242 182.290284 -52.993162 -184.336329 0.000000 0.000000 0.000000 -0.553221 9.684906 -52.414691 10.524160 17.688394 61.218754 -0.000662 1.895123 -1.922612 1.711354 -8.230658 -23.420580 0.000000 0.000000 0.000000 -11.283897 0.750410 -14.442666 -14.790827 -19.334001 74.604005 0.380371 -11.003456 -7.056362 -4.591514 12.804294 -38.811598 -0.416236 4.110267 29.360547 1.005709 3.458738 11.205591 0.308597 0.934092 -3.629463 -10.344483 2.165275 -12.656257 15.173393 3.993047 -7.773018 6.497734 2.050079 -0.692751 0.000000 0.000000 0.000000 11.988621 -2.736108 -23.236340 65.731983 -57.653278 39.148861 34.301001 -17.801689 -17.322353 0.000000 0.000000 0.000000 -7.125000 0.000000 0.000000 6.430002 50.553429 -0.881587 0.000000 0.000000 0.000000 -5.658630 -11.348688 0.237290 -31.125538 -41.838790 -12.153502 -38.679789 -45.479186 -34.468965 0.000000 0.000000 0.000000 7.125000 0.000000 0.000000 -3.096802 -11.294569 -3.647873
-6.867412 13.443804 0.943769 181.273773 -52.865615 -183.971771 0.000000 0.000000 0.000000 -1.543703 9.671268 -51.520671 10.968967 17.918113 62.678656 0.029807 1.027024 -3.629794 1.741784 -8.292965 -23.615053 0.000000 0.000000 0.000000 -11.645857 0.680956 -15.283608 -15.141839 -19.423599 75.663001 0.507045 -12.905324 -8.051144 -3.204639 10.699446 -31.575912 -1.045234 4.238799 29.401376 0.910511 3.429059 11.272359 0.571980 0.898935 -3.606485 -10.353551 2.168134 -12.598268 14.996777 3.988779 -7.629539 6.440241 2.055687 -0.659390 0.000000 0.000000 0.000000 13.115391 -2.808151 -23.621280 65.597504 -57.625620 39.035310 34.608709 -17.815146 -17.043658 0.000000 0.000000 0.000000 -7.125000 0.000000 0.000000 6.761834 50.287242 -0.884146 0.000000 0.000000 0.000000 -5.649745 -10.801905 -0.285758 -31.103970 -41.820965 -12.139191 -39.015533 -45.729605 -34.208820 0.000000 0.000000 0.000000 7.125000 0.000000 0.000000 -3.345150 -11.142753 -3.934490
-7.140803 13.487482 0.949340 180.080167 -52.719763 -183.484609 0.000000 0.000000 0.000000 -2.793315 9.815994 -50.501365 11.324204 18.087849 63.827279 0.080242 0.226229 -5.285848 1.459147 -7.615858 -21.562632 0.000000 0.000000 0.000000 -12.087681 0.444368 -16.151965 -15.438404 -19.492465 76.552990 0.496555 -13.275318 -9.920376 -1.442204 6.964301 -19.921659 -1.720208 4.342810 29.491459 0.756480 3.341227 11.363095 0.814376 0.831254 -3.574482 -10.711574 2.312031 -12.211206 15.090061 4.227974 -7.819604 6.527361 2.169595 -0.815554 0.000000 0.000000 0.000000 14.268045 -2.916251 -23.827465 65.287250 -57.561435 38.773357 34.734767 -17.770578 -16.705193 0.000000 0.000000 0.000000 -7.125000 0.000000 0.000000 6.905375 49.915351 -0.839578 0.000000 0.000000 0.000000 -5.639967 -10.421361 -0.764149 -30.969675 -41.710079 -12.049701 -39.156940 -45.811273 -33.967491 0.000000 0.000000 0.000000 7.125000 0.000000 0.000000 -3.486261 -10.937043 -4.091010
-7.415780 13.526934 0.958469 178.623075 -52.520051 -182.823434 0.000000 0.000000 0.000000 -4.271187 10.079923 -49.320656 11.626990 18.226939 64.799706 0.137651 -0.411366 -6.773208 1.400015 -7.482137 -21.153086 0.000000 0.000000 0.000000 -12.700454 0.036409 -17.113775 -15.700553 -19.549989 77.337691 0.484374 -13.543405 -11.218464 -0.555224 4.637537 -12.900564 -2.486662 4.452280 29.616134 0.541932 3.219650 11.475705 1.052545 0.741169 -3.530079 -10.662250 2.391887 -12.310253 14.759407 4.321935 -7.583899 6.416479 2.229432 -0.740957 0.000000 0.000000 0.000000 15.330310 -3.032664 -23.823424 64.803898 -57.458573 38.365853 34.473275 -17.601031 -16.453382 0.000000 0.000000 0.000000 -7.125000 0.000000 0.000000 6.651151 49.574318 -0.755875 0.000000 0.000000 0.000000 -5.704971 -10.234135 -1.286254 -30.533568 -41.342330 -11.761996 -39.114577 -45.610856 -33.928708 0.000000 0.000000 0.000000 7.125000 0.000000 0.000000 -3.474529 -10.879244 -4.074574
